<svg xmlns="http://www.w3.org/2000/svg" viewBox="0 0 48 48">
  <!-- Pikachu head + ears (mirrors HomeLogo in Shell.jsx). Stroke widened
       from 1.8 → 3 so the silhouette stays legible at 16×16 tab size. -->
  <g fill="none" stroke="#F5B82E" stroke-width="3" stroke-linecap="round" stroke-linejoin="round">
    <path d="M 20.6 13.5 A 8 8 0 0 0 11.4 13.5"/>
    <path d="M 22.6 15.4 A 8 8 0 1 1 9.4 15.4"/>
    <path d="M 20.6 13.5 Q 21 8 27.6 7.6 Q 27.5 12 22.6 15.4"/>
    <path d="M 11.4 13.5 Q 11 8 4.4 7.6 Q 4.5 12 9.4 15.4"/>
  </g>
  <!-- Sparkles (lucide-react Sparkles paths) translated to the lower-right
       so it overlaps the head's lower edge — same visual relationship as
       the in-app HomeLogo. -->
  <g fill="none" stroke="#27AE60" stroke-width="2.5" stroke-linecap="round" stroke-linejoin="round" transform="translate(22, 22)">
    <path d="M9.937 15.5A2 2 0 0 0 8.5 14.063l-6.135-1.582a.5.5 0 0 1 0-.962L8.5 9.936A2 2 0 0 0 9.937 8.5l1.582-6.135a.5.5 0 0 1 .963 0L14.063 8.5A2 2 0 0 0 15.5 9.937l6.135 1.582a.5.5 0 0 1 0 .962L15.5 14.063a2 2 0 0 0-1.437 1.437l-1.582 6.135a.5.5 0 0 1-.963 0z"/>
    <path d="M20 3v4"/>
    <path d="M22 5h-4"/>
    <path d="M4 17v2"/>
    <path d="M5 18H3"/>
  </g>
</svg>
